<svg width="68" height="88" viewBox="0 0 68 88" fill="none" xmlns="http://www.w3.org/2000/svg">
<path d="M62.5702 79.0215L57.7502 79.3416L56.8502 84.0815L52.2202 82.7316L49.7402 86.8716L45.8502 84.0215L42.1102 87.0616L39.4302 83.0515L34.8802 84.6415L33.7302 79.9516L28.9102 79.8816L29.4302 75.0916L24.9202 73.3716L27.0602 69.0416L23.4102 65.8915L26.8902 62.5515L24.5402 58.3416L28.9502 56.4016L28.1902 51.6415L33.0002 51.3216L33.9102 46.5815L38.5402 47.9315L41.0102 43.7916L44.9002 46.6415L48.6402 43.6016L51.3202 47.6115L55.8701 46.0215L57.0202 50.7115L61.8502 50.7816L61.3202 55.5716L65.8302 57.2916L63.7002 61.6115L67.3502 64.7715L63.8602 68.1115L66.2102 72.3216L61.8002 74.2616L62.5702 79.0215Z" fill="url(#paint0_linear_287_1022)"/>
<path d="M29.1006 65.3325C29.1006 74.3225 36.3906 81.6025 45.3706 81.6025C54.3506 81.6025 61.6406 74.3125 61.6406 65.3325C61.6406 56.3525 54.3506 49.0625 45.3706 49.0625C36.3906 49.0625 29.1006 56.3525 29.1006 65.3325Z" fill="url(#paint1_radial_287_1022)"/>
<path style="mix-blend-mode:overlay" d="M47.8607 63.6603C43.7207 60.3003 42.1007 55.1803 44.2507 52.2203C46.4007 49.2703 51.5007 49.6003 55.6507 52.9603C59.7907 56.3203 61.4107 61.4403 59.2607 64.3903C57.1107 67.3503 52.0107 67.0103 47.8607 63.6503V63.6603Z" fill="url(#paint2_radial_287_1022)"/>
<path style="mix-blend-mode:overlay" opacity="0.4" d="M30.9903 68.9293C31.5403 67.1293 34.3303 67.8793 37.2303 70.5993C40.1303 73.3193 42.0303 76.9793 41.4803 78.7793C40.9303 80.5793 38.1403 79.8293 35.2403 77.1093C32.3403 74.3893 30.4403 70.7193 30.9903 68.9293Z" fill="url(#paint3_radial_287_1022)"/>
<path d="M31.44 0H7.72C3.45636 0 0 3.45636 0 7.72V79.35C0 83.6136 3.45636 87.07 7.72 87.07H31.44C35.7036 87.07 39.16 83.6136 39.16 79.35V7.72C39.16 3.45636 35.7036 0 31.44 0Z" fill="url(#paint4_linear_287_1022)"/>
<path d="M15.75 67.9983C15.75 70.1083 17.46 71.8283 19.58 71.8283C21.7 71.8283 23.41 70.1183 23.41 67.9983V14.8183C23.41 12.6983 21.7 10.9883 19.58 10.9883C17.46 10.9883 15.75 12.6983 15.75 14.8183V67.9983Z" fill="#A3AAD2"/>
<path d="M15.75 68.0006C15.75 70.1106 17.46 71.8306 19.58 71.8306C21.7 71.8306 23.41 70.1206 23.41 68.0006V29.7206C23.41 27.6106 21.7 25.8906 19.58 25.8906C17.46 25.8906 15.75 27.6006 15.75 29.7206V68.0006Z" fill="url(#paint5_linear_287_1022)"/>
<path d="M27.4704 70.9681C27.4704 75.3281 23.9404 78.8581 19.5804 78.8581C15.2204 78.8581 11.6904 75.3281 11.6904 70.9681C11.6904 66.6081 15.2204 63.0781 19.5804 63.0781C23.9404 63.0781 27.4704 66.6081 27.4704 70.9681Z" fill="url(#paint6_radial_287_1022)"/>
<path d="M32.1398 18.3012C32.1398 18.7212 31.7998 19.0713 31.3698 19.0713H27.7798C27.3598 19.0713 27.0098 18.7312 27.0098 18.3012C27.0098 17.8812 27.3498 17.5312 27.7798 17.5312H31.3698C31.7898 17.5312 32.1398 17.8712 32.1398 18.3012Z" fill="#A3AAD2"/>
<path d="M32.1398 29.4887C32.1398 29.9087 31.7998 30.2588 31.3698 30.2588H27.7798C27.3598 30.2588 27.0098 29.9187 27.0098 29.4887C27.0098 29.0687 27.3498 28.7188 27.7798 28.7188H31.3698C31.7898 28.7188 32.1398 29.0587 32.1398 29.4887Z" fill="#A3AAD2"/>
<path d="M32.1398 40.6919C32.1398 41.1119 31.7998 41.4619 31.3698 41.4619H27.7798C27.3598 41.4619 27.0098 41.1219 27.0098 40.6919C27.0098 40.2719 27.3498 39.9219 27.7798 39.9219H31.3698C31.7898 39.9219 32.1398 40.2619 32.1398 40.6919Z" fill="#A3AAD2"/>
<path d="M32.1398 51.8794C32.1398 52.2994 31.7998 52.6494 31.3698 52.6494H27.7798C27.3598 52.6494 27.0098 52.3094 27.0098 51.8794C27.0098 51.4594 27.3498 51.1094 27.7798 51.1094H31.3698C31.7898 51.1094 32.1398 51.4494 32.1398 51.8794Z" fill="#A3AAD2"/>
<path d="M32.1398 63.0786C32.1398 63.4986 31.7998 63.8486 31.3698 63.8486H27.7798C27.3598 63.8486 27.0098 63.5086 27.0098 63.0786C27.0098 62.6586 27.3498 62.3086 27.7798 62.3086H31.3698C31.7898 62.3086 32.1398 62.6486 32.1398 63.0786Z" fill="#A3AAD2"/>
<defs>
<linearGradient id="paint0_linear_287_1022" x1="65.4102" y1="42.9516" x2="26.7902" y2="86.1016" gradientUnits="userSpaceOnUse">
<stop stop-color="#FFBA24"/>
<stop offset="1" stop-color="#FF5500"/>
</linearGradient>
<radialGradient id="paint1_radial_287_1022" cx="0" cy="0" r="1" gradientUnits="userSpaceOnUse" gradientTransform="translate(49.1006 55.1325) rotate(-180) scale(30.89)">
<stop stop-color="#FFF4C3"/>
<stop offset="0.16" stop-color="#FFE036"/>
<stop offset="1" stop-color="#FA761C"/>
</radialGradient>
<radialGradient id="paint2_radial_287_1022" cx="0" cy="0" r="1" gradientUnits="userSpaceOnUse" gradientTransform="translate(153.656 -84.5017) rotate(126.03) scale(6.6352 9.6512)">
<stop stop-color="white"/>
<stop offset="0.1" stop-color="white" stop-opacity="0.85"/>
<stop offset="0.29" stop-color="white" stop-opacity="0.59"/>
<stop offset="0.47" stop-color="white" stop-opacity="0.38"/>
<stop offset="0.63" stop-color="white" stop-opacity="0.22"/>
<stop offset="0.78" stop-color="white" stop-opacity="0.1"/>
<stop offset="0.91" stop-color="white" stop-opacity="0.03"/>
<stop offset="1" stop-color="white" stop-opacity="0"/>
</radialGradient>
<radialGradient id="paint3_radial_287_1022" cx="0" cy="0" r="1" gradientUnits="userSpaceOnUse" gradientTransform="translate(758.371 763.566) rotate(-136.79) scale(7.1967 3.0396)">
<stop stop-color="white"/>
<stop offset="0.1" stop-color="white" stop-opacity="0.85"/>
<stop offset="0.29" stop-color="white" stop-opacity="0.59"/>
<stop offset="0.47" stop-color="white" stop-opacity="0.38"/>
<stop offset="0.63" stop-color="white" stop-opacity="0.22"/>
<stop offset="0.78" stop-color="white" stop-opacity="0.1"/>
<stop offset="0.91" stop-color="white" stop-opacity="0.03"/>
<stop offset="1" stop-color="white" stop-opacity="0"/>
</radialGradient>
<linearGradient id="paint4_linear_287_1022" x1="0" y1="43.53" x2="39.16" y2="43.53" gradientUnits="userSpaceOnUse">
<stop stop-color="#DBE1FF"/>
<stop offset="1" stop-color="#CBD1E9"/>
</linearGradient>
<linearGradient id="paint5_linear_287_1022" x1="19.58" y1="26.7206" x2="19.58" y2="50.1206" gradientUnits="userSpaceOnUse">
<stop stop-color="#E93C28"/>
<stop offset="1" stop-color="#BB160A"/>
</linearGradient>
<radialGradient id="paint6_radial_287_1022" cx="0" cy="0" r="1" gradientUnits="userSpaceOnUse" gradientTransform="translate(17.3704 75.5381) scale(12.28 12.28)">
<stop stop-color="#FF909A"/>
<stop offset="0.2" stop-color="#E93C28"/>
<stop offset="1" stop-color="#BB160A"/>
</radialGradient>
</defs>
</svg>
